<svg xmlns="http://www.w3.org/2000/svg" xmlns:xlink="http://www.w3.org/1999/xlink" width="199" height="35" viewBox="0 0 199 35">
    <defs>
        <path id="3ry5pibqfa" d="M0 0.217L34.556 0.217 34.556 34.708 0 34.708z"/>
        <path id="umjdbac9dc" d="M0 34.783L198.855 34.783 198.855 0.292 0 0.292z"/>
    </defs>
    <g fill="none" fill-rule="evenodd">
        <g>
            <g transform="translate(-107 -36) translate(107 36)">
                <g transform="translate(0 .075)">
                    <mask id="90g2htg9ab" fill="#fff">
                        <use xlink:href="#3ry5pibqfa"/>
                    </mask>
                    <path fill="#5C0F8B" d="M17.278.217c-7.57 0-11.78 0-14.529 2.744C0 5.705 0 9.906 0 17.463S0 29.22 2.75 31.964c2.748 2.744 6.957 2.744 14.528 2.744 7.571 0 11.78 0 14.53-2.744 2.748-2.743 2.748-6.944 2.748-14.501 0-7.557 0-11.758-2.748-14.502C29.058.217 24.849.217 17.278.217m0 1.033c7.32 0 11.352 0 13.798 2.441 2.446 2.442 2.446 6.466 2.446 13.772 0 7.305 0 11.33-2.446 13.771-2.446 2.441-6.478 2.441-13.798 2.441s-11.351 0-13.797-2.44c-2.446-2.442-2.446-6.467-2.446-13.772 0-7.306 0-11.33 2.446-13.772 2.446-2.44 6.478-2.44 13.797-2.44" mask="url(#90g2htg9ab)"/>
                </g>
                <path fill="#BD8BEA" d="M17.286 11.957l5.136 3.558c1.444 1 1.444 3.044 0 4.044l-5.136 3.559v4.79c5.738 0 10.39-4.644 10.39-10.37 0-5.728-4.652-10.37-10.39-10.37v4.79z"/>
                <path fill="#FDD3B4" d="M11.075 7.653C9.332 6.446 6.88 7.627 6.88 9.676v15.723c0 2.048 2.45 3.23 4.194 2.022l6.211-4.303V11.957l-6.211-4.304z"/>
                <path fill="#5C0F8B" d="M22.422 15.515l-5.136-3.558v11.16l5.136-3.558c1.443-1 1.443-3.044 0-4.044M118.975 20.489c1.108-1.187 1.662-2.895 1.662-5.123 0-2.226-.554-3.934-1.662-5.121-1.108-1.188-2.655-1.782-4.64-1.782h-3.987V22.27h3.987c1.985 0 3.532-.594 4.64-1.781m0-12.898c1.24.664 2.203 1.65 2.892 2.96.69 1.311 1.033 2.916 1.033 4.815 0 1.9-.343 3.506-1.033 4.816-.689 1.31-1.653 2.296-2.892 2.96-1.24.663-2.695.995-4.37.995h-6.473V6.597h6.474c1.674 0 3.13.33 4.369.994M128.55 13.746c-.666.752-1.047 1.686-1.146 2.8h7.606c-.099-1.114-.484-2.048-1.157-2.8-.673-.754-1.56-1.13-2.658-1.13-1.1 0-1.982.376-2.646 1.13m6.534 9.543c-.935.762-2.223 1.143-3.863 1.143-1.165 0-2.2-.279-3.103-.835-.902-.557-1.604-1.347-2.104-2.371-.501-1.024-.75-2.207-.75-3.55s.246-2.526.738-3.55c.492-1.023 1.185-1.814 2.08-2.371.894-.556 1.932-.835 3.114-.835 1.148 0 2.174.267 3.076.799.902.532 1.609 1.302 2.116 2.308.51 1.008.764 2.2.764 3.575 0 .246-.009.434-.024.566h-9.773c.033 1.359.403 2.46 1.108 3.304.706.844 1.625 1.264 2.758 1.264 1.048 0 1.873-.253 2.472-.761.599-.507 1.013-1.106 1.244-1.793l2.092.27c-.36 1.13-1.009 2.076-1.945 2.837"/>
                <mask id="wz2oo5lcid" fill="#fff">
                    <use xlink:href="#umjdbac9dc"/>
                </mask>
                <path fill="#5C0F8B" d="M140.13 24.137L142.197 24.137 142.197 6.351 140.13 6.351zM145.913 24.137h2.067V11.215h-2.067v12.922zM145.89 8.71h2.116V6.35h-2.116v2.358zM155.266 24.137L150.318 11.215 152.606 11.215 156.422 21.779 156.496 21.779 160.361 11.215 162.6 11.215 157.579 24.137zM166.896 13.746c-.665.752-1.045 1.686-1.145 2.8h7.607c-.1-1.114-.485-2.048-1.158-2.8-.673-.754-1.56-1.13-2.658-1.13-1.1 0-1.982.376-2.646 1.13m6.534 9.543c-.934.762-2.223 1.143-3.863 1.143-1.165 0-2.2-.279-3.102-.835-.902-.557-1.605-1.347-2.105-2.371s-.75-2.207-.75-3.55.246-2.526.738-3.55c.492-1.023 1.185-1.814 2.08-2.371.894-.556 1.932-.835 3.114-.835 1.148 0 2.174.267 3.076.799.902.532 1.609 1.302 2.117 2.308.509 1.008.764 2.2.764 3.575 0 .246-.01.434-.025.566h-9.772c.033 1.359.402 2.46 1.108 3.304.705.844 1.624 1.264 2.757 1.264 1.049 0 1.873-.253 2.472-.761.599-.507 1.014-1.106 1.244-1.793l2.092.27c-.36 1.13-1.009 2.076-1.945 2.837M180.445 13.426h.074c.345-.77.87-1.38 1.575-1.83.706-.45 1.535-.676 2.487-.676.377 0 .746.033 1.108.099v1.99c-.542-.05-.944-.074-1.207-.074-1.198 0-2.154.368-2.867 1.105-.713.737-1.07 1.867-1.07 3.39v6.707h-2.068V11.215h1.968v2.211zM193.835 24.137c-.542 1.376-1.051 2.412-1.526 3.108-.476.696-.948 1.154-1.416 1.376-.467.22-1.03.331-1.686.331-.509 0-.984-.04-1.428-.123v-1.817c.345.098.722.146 1.132.146.428 0 .78-.069 1.059-.208.28-.139.541-.39.787-.75s.51-.892.788-1.596l.247-.614-5.218-12.775h2.265l3.937 10.342h.075l3.765-10.342h2.24l-5.021 12.922zM43.666 6.338h5.478v6.267c.418-.553.96-1.04 1.63-1.463.666-.423 1.467-.635 2.4-.635 1.4 0 2.502.43 3.306 1.292.804.863 1.206 2.049 1.206 3.56v8.777H52.21v-6.998c0-.568-.145-1.01-.435-1.328-.29-.317-.644-.475-1.061-.475-.42 0-.785.158-1.099.475-.313.317-.47.76-.47 1.328v6.998h-5.478V6.338zM64.003 24.453c-1.4 0-2.502-.43-3.306-1.292-.805-.862-1.207-2.048-1.207-3.56v-8.776h5.478v6.997c0 .569.145 1.01.434 1.329.29.316.644.474 1.062.474.419 0 .784-.158 1.098-.474.314-.318.47-.76.47-1.33v-6.996h5.48v13.311h-5.48v-1.78c-.418.553-.96 1.04-1.628 1.463-.668.422-1.468.634-2.4.634M82.626 18.821c.676 0 1.21-.203 1.605-.61.394-.406.591-.902.591-1.487v-.048c0-.569-.197-1.057-.59-1.464-.395-.405-.93-.609-1.606-.609-.675 0-1.21.207-1.605.622-.394.415-.59.914-.59 1.5v.048c0 .569.196 1.053.59 1.45.394.399.93.598 1.605.598m-.096 9.264c-1.465 0-2.784-.142-3.958-.426-1.174-.285-2.292-.695-3.355-1.231l1.69-3.34c.74.39 1.488.698 2.244.926.756.227 1.594.341 2.51.341 1.03 0 1.81-.255 2.34-.768.531-.512.797-1.23.797-2.157v-.39c-.193.212-.414.427-.664.646-.249.22-.53.414-.844.585-.313.17-.664.313-1.05.427-.386.113-.804.17-1.255.17-.853 0-1.636-.146-2.352-.438-.716-.293-1.336-.708-1.858-1.244-.524-.536-.93-1.178-1.22-1.926-.288-.747-.434-1.585-.434-2.511v-.05c0-.925.146-1.77.434-2.535.29-.764.689-1.417 1.195-1.962.507-.545 1.098-.963 1.774-1.256.675-.293 1.392-.44 2.148-.44.965 0 1.757.163 2.377.49.619.324 1.17.74 1.652 1.243v-1.415h5.48v9.948c0 1.235-.134 2.283-.399 3.145-.266.86-.704 1.6-1.315 2.218-.596.601-1.364 1.076-2.305 1.427-.941.349-2.152.523-3.632.523M98.892 19.804c-1.343 0-2.432-1.061-2.432-2.37 0-1.308 1.09-2.368 2.432-2.368 1.344 0 2.432 1.06 2.432 2.369 0 1.308-1.088 2.369-2.432 2.369m.055-9.364c-3.966 0-7.18 3.132-7.18 6.995s3.214 6.994 7.18 6.994c3.966 0 7.18-3.131 7.18-6.994s-3.214-6.995-7.18-6.995" mask="url(#wz2oo5lcid)"/>
            </g>
        </g>
    </g>
</svg>
